HIERARCHY
ROOT Hips
{
	OFFSET 0.000000 0.000000 0.000000
	CHANNELS 6 Xposition Yposition Zposition Xrotation Yrotation Zrotation
	JOINT LeftUpLeg_virtual
	{
		OFFSET 0.000000 0.000000 0.000000
		CHANNELS 3 Xrotation Yrotation Zrotation
		JOINT LeftUpLeg
		{
			OFFSET 15.427100 -6.655098 0.678600
			CHANNELS 3 Xrotation Yrotation Zrotation
			JOINT LeftLeg
			{
				OFFSET 4.081073 -39.591068 13.024000
				CHANNELS 3 Xrotation Yrotation Zrotation
				JOINT LeftFoot
				{
					OFFSET -4.081074 -37.707932 -15.979700
					CHANNELS 3 Xrotation Yrotation Zrotation
					JOINT LeftToeBase
					{
						OFFSET 5.346399 -15.068900 20.645000
						CHANNELS 3 Xrotation Yrotation Zrotation
						JOINT LeftToe_End
						{
							OFFSET 2.754700 0.931300 11.300900
							CHANNELS 3 Xrotation Yrotation Zrotation
							End Site
							{
								OFFSET 0 0 0
							}
						}
					}
				}
			}
		}
	}
	JOINT RightUpLeg_virtual
	{
		OFFSET 0.000000 0.000000 0.000000
		CHANNELS 3 Xrotation Yrotation Zrotation
		JOINT RightUpLeg
		{
			OFFSET -15.569500 -6.655098 0.678600
			CHANNELS 3 Xrotation Yrotation Zrotation
			JOINT RightLeg
			{
				OFFSET -4.081825 -39.591045 13.023800
				CHANNELS 3 Xrotation Yrotation Zrotation
				JOINT RightFoot
				{
					OFFSET 4.081824 -37.707954 -15.979600
					CHANNELS 3 Xrotation Yrotation Zrotation
					JOINT RightToeBase
					{
						OFFSET -5.346400 -15.068900 20.645000
						CHANNELS 3 Xrotation Yrotation Zrotation
						JOINT RightToe_End
						{
							OFFSET -2.754700 0.931300 11.300900
							CHANNELS 3 Xrotation Yrotation Zrotation
							End Site
							{
								OFFSET 0 0 0
							}
						}
					}
				}
			}
		}
	}
	JOINT Spine_virtual
	{
		OFFSET 0.000000 0.000000 0.000000
		CHANNELS 3 Xrotation Yrotation Zrotation
		JOINT Spine
		{
			OFFSET -0.279200 12.230698 -2.892100
			CHANNELS 3 Xrotation Yrotation Zrotation
			JOINT Spine1
			{
				OFFSET -0.232667 10.192268 -1.242267
				CHANNELS 3 Xrotation Yrotation Zrotation
				JOINT Spine1_split
				{
					OFFSET -0.232667 10.192268 -1.242267
					CHANNELS 3 Xrotation Yrotation Zrotation
					JOINT Spine2
					{
						OFFSET -0.232667 10.192268 -1.242267
						CHANNELS 3 Xrotation Yrotation Zrotation
						JOINT Neck_virtual
						{
							OFFSET 0.000000 0.000000 0.000000
							CHANNELS 3 Xrotation Yrotation Zrotation
							JOINT Neck
							{
								OFFSET -0.418800 17.814194 8.416900
								CHANNELS 3 Xrotation Yrotation Zrotation
								JOINT Head
								{
									OFFSET 0.000000 7.031097 3.806800
									CHANNELS 3 Xrotation Yrotation Zrotation
									JOINT HeadTop_End
									{
										OFFSET 0.000000 24.646606 12.978600
										CHANNELS 3 Xrotation Yrotation Zrotation
										End Site
										{
											OFFSET 0 0 0
										}
									}
								}
							}
						}
						JOINT LeftShoulder_virtual
						{
							OFFSET 0.000000 0.000000 0.000000
							CHANNELS 3 Xrotation Yrotation Zrotation
							JOINT LeftShoulder
							{
								OFFSET 8.476499 7.247704 -3.868750
								CHANNELS 3 Xrotation Yrotation Zrotation
								JOINT LeftShoulder_split
								{
									OFFSET 8.476499 7.247704 -3.868750
									CHANNELS 3 Xrotation Yrotation Zrotation
									JOINT LeftArm
									{
										OFFSET 9.308998 -2.777710 0.208600
										CHANNELS 3 Xrotation Yrotation Zrotation
										JOINT LeftForeArm
										{
											OFFSET 29.972298 0.000000 0.000000
											CHANNELS 3 Xrotation Yrotation Zrotation
											JOINT LeftHand
											{
												OFFSET 26.026505 0.000000 0.000000
												CHANNELS 3 Xrotation Yrotation Zrotation
												End Site
												{
													OFFSET 0 0 0
												}
											}
										}
									}
								}
							}
						}
						JOINT RightShoulder_virtual
						{
							OFFSET 0.000000 0.000000 0.000000
							CHANNELS 3 Xrotation Yrotation Zrotation
							JOINT RightShoulder
							{
								OFFSET -7.570500 7.247704 -3.868750
								CHANNELS 3 Xrotation Yrotation Zrotation
								JOINT RightShoulder_split
								{
									OFFSET -7.570500 7.247704 -3.868750
									CHANNELS 3 Xrotation Yrotation Zrotation
									JOINT RightArm
									{
										OFFSET -9.308998 -2.777710 0.208500
										CHANNELS 3 Xrotation Yrotation Zrotation
										JOINT RightForeArm
										{
											OFFSET -29.972300 0.000000 0.000000
											CHANNELS 3 Xrotation Yrotation Zrotation
											JOINT RightHand
											{
												OFFSET -26.026505 0.000000 0.000000
												CHANNELS 3 Xrotation Yrotation Zrotation
												End Site
												{
													OFFSET 0 0 0
												}
											}
										}
									}
								}
							}
						}
					}
				}
			}
		}
	}
}
MOTION
Frames: 4
Frame Time: 0.03333333
2.614312 92.255470 4.702896 0.000000 0.000000 0.000000 -5.654508 -4.101660 9.182061 -31.331714 -0.247795 -1.901054 22.181164 11.636935 5.630875 25.292421 4.872613 -8.504066 -4.858120 1.369951 -1.376871 0.000000 0.000000 0.000000 -5.786980 -3.936516 8.651433 -1.044480 -6.986031 11.478483 14.990211 -11.732343 -0.146385 -11.671707 -11.374572 -18.854963 -1.308760 1.068671 -1.135722 0.000000 0.000000 0.000000 -6.399808 -10.391655 7.926139 1.146114 1.967464 -3.749983 2.610768 3.187609 -4.651941 0.679004 -2.456417 0.049340 0.000000 0.000000 0.000000 0.543392 3.058322 -4.549325 3.425132 -1.360532 0.962212 11.101126 10.935104 7.791476 0.000000 0.000000 0.000000 1.325961 2.875005 -4.762730 -0.040494 3.012122 -1.277382 -4.023465 0.685053 -1.278480 -15.292705 5.847054 -20.249189 0.378135 -18.548320 -1.343306 0.000000 0.000000 0.000000 1.003325 3.127968 -4.406662 1.200976 -2.561812 6.065348 -4.028866 -0.340026 -1.133913 -48.118358 32.497391 14.422250 -0.025696 13.684485 0.375091 0.000000 0.000000 0.000000 
1.634129 91.866455 6.052971 0.000000 0.000000 0.000000 -6.711765 -5.529909 9.341779 -32.768379 2.147067 -4.098266 21.046039 12.424211 5.623303 25.995423 5.881066 -7.882698 -5.081458 1.086914 -0.450610 0.000000 0.000000 0.000000 -5.987127 -5.983831 8.862079 -1.164146 -8.183252 11.201982 17.966147 -12.130156 1.008836 -9.490687 -11.765013 -19.585291 -3.565636 0.928805 -0.470488 0.000000 0.000000 0.000000 -7.165337 -11.433883 8.004469 1.521063 2.099142 -4.200992 2.612911 3.507366 -4.610802 0.643747 -1.875024 0.066845 0.000000 0.000000 0.000000 0.734231 3.414818 -4.524608 3.677828 -1.377444 1.124221 10.680397 10.806090 7.817137 0.000000 0.000000 0.000000 1.381363 3.272113 -4.669236 -0.000885 3.193343 -0.000275 -4.718208 0.532396 -0.421159 -17.647500 6.497819 -18.737980 -0.082172 -18.279140 -1.291962 0.000000 0.000000 0.000000 1.073648 3.420312 -4.397815 1.036099 -2.764574 5.671549 -4.102257 0.365414 -1.460319 -48.927111 34.733404 14.557901 0.191225 15.495935 -0.079150 0.000000 0.000000 0.000000 
0.452114 91.508789 7.745285 0.000000 0.000000 0.000000 -7.419076 -9.181011 9.359011 -32.701228 5.304329 -8.037318 19.129121 14.194959 5.745345 26.908678 8.412038 -6.415349 -5.326196 0.655638 1.038239 0.000000 0.000000 0.000000 -6.234016 -10.287682 9.122194 -0.659772 -8.557501 10.538027 21.711814 -11.609697 2.169649 -6.742086 -11.351982 -18.830982 -7.834306 0.649307 0.439827 0.000000 0.000000 0.000000 -7.977497 -13.650056 8.012957 1.605863 2.726774 -4.647802 2.652648 4.303189 -4.486494 0.603002 -1.569962 0.238840 0.000000 0.000000 0.000000 0.960760 4.267623 -4.399646 3.659267 -1.423527 1.108252 10.330175 10.406195 7.656803 0.000000 0.000000 0.000000 1.428344 4.207722 -4.439511 -0.078387 3.284761 1.873695 -4.916682 0.755837 -0.292830 -19.362854 7.761284 -15.241010 -0.395641 -18.299335 -1.067283 0.000000 0.000000 0.000000 1.242362 4.201371 -4.301945 1.046476 -3.204934 4.966386 -3.774033 0.404451 -1.290615 -49.741245 39.013115 14.124159 0.422123 17.313196 -0.511970 0.000000 0.000000 0.000000 
-0.971581 91.245056 9.358627 0.000000 0.000000 0.000000 -7.636586 -14.108469 9.149674 -31.519233 7.983810 -12.790742 17.402251 16.131218 5.987070 28.408333 11.498749 -5.404143 -5.601972 0.287754 2.363601 0.000000 0.000000 0.000000 -6.152119 -15.576955 9.216269 1.059980 -7.920024 10.256579 23.662142 -10.570338 2.476537 -5.876528 -9.710874 -18.237613 -11.365255 0.370973 1.386494 0.000000 0.000000 0.000000 -8.523340 -16.493206 7.741398 1.403653 3.625703 -4.919009 2.715383 5.376478 -4.249627 0.522300 -1.745211 0.441159 0.000000 0.000000 0.000000 1.163250 5.397222 -4.128855 3.384480 -1.370023 0.970938 10.078532 9.934420 7.274720 0.000000 0.000000 0.000000 1.447609 5.430517 -4.083970 -0.230617 3.321523 3.960744 -4.558345 1.257614 -0.747685 -20.260892 9.533508 -10.640933 -0.635172 -17.746349 -0.744007 0.000000 0.000000 0.000000 1.462361 5.302124 -4.094629 1.174163 -3.822724 4.063099 -3.368379 -0.116054 -0.699152 -50.199766 44.295515 12.959465 0.615605 18.510868 -0.884526 0.000000 0.000000 0.000000 
